<svg width="160" height="47" viewBox="0 0 160 47" fill="none" xmlns="http://www.w3.org/2000/svg">
<path d="M58.7345 9.57503C58.7345 9.80605 58.6805 10.0344 58.5769 10.2416L45.6948 35.831C45.4611 36.2621 45.1664 36.655 44.8229 36.9985C43.9076 37.9137 42.6411 38.4811 41.2425 38.4811C40.2238 38.4811 39.2749 38.1792 38.4818 37.6614C38.1862 37.4694 37.9118 37.2454 37.6622 36.9985C37.2913 36.6268 36.9762 36.1957 36.7337 35.7231L34.2836 30.8213C33.9314 30.1159 32.9241 30.115 32.5683 30.8195L30.0457 35.831C29.812 36.2621 29.5163 36.655 29.1739 36.9985C28.9251 37.2463 28.6498 37.4694 28.3542 37.6614C27.5602 38.1792 26.6122 38.4811 25.5935 38.4811C24.1949 38.4811 22.9284 37.9137 22.0132 36.9985C21.6414 36.6268 21.3263 36.1957 21.0847 35.7231L8.19627 9.94855C8.13962 9.8326 8.10156 9.70515 8.10156 9.5768V9.57503C8.10156 8.76161 8.76009 8.10132 9.5753 8.10132H15.4667C16.4855 8.10132 17.4343 8.40314 18.2292 8.92093C18.5249 9.113 18.7984 9.33693 19.0471 9.58565C19.4188 9.95652 19.734 10.3867 19.9756 10.8593L24.7349 20.3787C25.089 21.085 26.0971 21.085 26.4503 20.3787L27.7558 17.7676L23.9277 10.1123C23.4674 9.18824 24.1374 8.10132 25.1704 8.10132H31.1167C31.5938 8.10132 32.0558 8.16771 32.494 8.29162C33.3383 8.5306 34.0934 8.98201 34.697 9.58477C35.0688 9.95563 35.383 10.3858 35.6255 10.8585L40.3849 20.3779C40.7371 21.0842 41.7462 21.0842 42.1002 20.3779L43.1766 18.2279L46.8604 10.8593C47.2641 10.0716 47.8687 9.40243 48.6069 8.92093C49.4017 8.40314 50.3506 8.10132 51.3693 8.10132H57.2608C58.075 8.10132 58.7345 8.76161 58.7345 9.57503Z" fill="#FAFAFA"/>
<path d="M65.8129 8.10779V14.2404H65.0352V8.10779H65.8129ZM70.2938 10.5301V9.89817H71.0391V14.2404H70.2938V13.6248C69.9049 14.1027 69.3945 14.3458 68.7627 14.3458C68.1389 14.3458 67.6204 14.127 67.2072 13.6815C66.794 13.2359 66.5915 12.6931 66.5915 12.0369C66.5915 11.3888 66.794 10.8541 67.2072 10.4329C67.6204 10.0035 68.1389 9.79285 68.7627 9.79285C69.3783 9.79285 69.8887 10.0359 70.2938 10.5301ZM70.3424 12.0612C70.3424 11.6318 70.2047 11.2592 69.9292 10.9594C69.6538 10.6597 69.2973 10.5058 68.8518 10.5058C68.4062 10.5058 68.0497 10.6597 67.7824 10.9594C67.5151 11.2592 67.3773 11.6318 67.3773 12.0693C67.3773 12.5068 67.5151 12.8794 67.7824 13.1792C68.0497 13.4789 68.4062 13.6329 68.8518 13.6329C69.2973 13.6329 69.6538 13.4789 69.9292 13.1792C70.2047 12.8794 70.3424 12.5068 70.3424 12.0612ZM74.3933 9.79285C75.009 9.79285 75.5194 10.0116 75.9326 10.4572C76.3457 10.8946 76.5564 11.4293 76.5564 12.0693C76.5564 12.7093 76.3457 13.244 75.9326 13.6896C75.5194 14.127 75.009 14.3458 74.3852 14.3458C73.7614 14.3458 73.2511 14.1027 72.8622 13.6085V14.2404H72.0845V8.10779H72.8622V10.5544C73.2592 10.044 73.7695 9.79285 74.3933 9.79285ZM74.2961 13.6166C74.7336 13.6166 75.09 13.4708 75.3574 13.1711C75.6328 12.8713 75.7705 12.4987 75.7705 12.0612C75.7705 11.6318 75.6328 11.2673 75.3574 10.9675C75.09 10.6678 74.7336 10.522 74.2961 10.522C73.8506 10.522 73.4941 10.6678 73.2267 10.9675C72.9594 11.2673 72.8298 11.6318 72.8298 12.0612C72.8298 12.5068 72.9594 12.8713 73.2267 13.1711C73.4941 13.4708 73.8506 13.6166 74.2961 13.6166ZM78.5412 14.3377C77.8931 14.3377 77.2612 14.0217 76.929 13.3979L77.488 12.9685C77.7392 13.4303 78.1685 13.6572 78.5655 13.6572C79.0273 13.6572 79.3351 13.3898 79.3351 13.0577C79.3351 12.8308 79.2055 12.6445 78.9381 12.5068C78.849 12.4582 78.6627 12.3772 78.3954 12.2637C78.128 12.1503 77.9498 12.0693 77.8607 12.0207C77.4151 11.7777 77.1964 11.4293 77.1964 10.9675C77.1964 10.6192 77.326 10.3275 77.5852 10.1007C77.8445 9.86576 78.1847 9.75234 78.6141 9.75234C79.165 9.75234 79.6997 9.98728 79.9913 10.441L79.4971 10.9108C79.2622 10.5787 78.9543 10.4085 78.5655 10.4085C78.1766 10.4085 77.9417 10.6435 77.9417 10.9351C77.9417 11.162 78.0632 11.3321 78.3062 11.4455L78.7842 11.6561C79.0435 11.7615 79.2379 11.8506 79.3675 11.9235C79.8617 12.1746 80.1047 12.5392 80.1047 13.0172C80.1047 13.3898 79.9589 13.7058 79.6673 13.9569C79.3756 14.208 79.003 14.3377 78.5412 14.3377Z" fill="white"/>
<path d="M67.4773 38.4474H65.0469V20.4869H76.0322V22.8444H67.4773V28.1669H74.9385V30.5244H67.4773V38.4474ZM89.802 31.691C89.802 31.8611 89.7777 32.2499 89.7291 32.8818H79.3514C79.7402 35.0935 81.1985 36.6003 83.9205 36.6003C85.4759 36.6003 87.2744 36.017 88.4653 35.1421L89.4618 36.9163C88.1737 37.9127 86.0349 38.7391 83.8719 38.7391C78.9625 38.7391 76.921 35.2636 76.921 31.8854C76.921 29.9168 77.5286 28.3127 78.7438 27.0246C79.9833 25.7365 81.563 25.1046 83.5073 25.1046C85.3544 25.1046 86.8613 25.6879 88.0278 26.8788C89.2187 28.0697 89.802 29.6737 89.802 31.691ZM79.3514 30.8646H87.3959C87.2744 28.6044 85.6461 27.1705 83.5073 27.1705C81.3686 27.1705 79.7402 28.7016 79.3514 30.8646ZM95.7158 38.7391C93.7715 38.7391 91.8758 37.7912 90.8794 35.9198L92.5563 34.6317C93.3098 36.017 94.5979 36.6975 95.7887 36.6975C97.1741 36.6975 98.0976 35.8955 98.0976 34.8991C98.0976 34.2186 97.7088 33.6596 96.9067 33.2464C96.6394 33.1006 96.0804 32.8575 95.2784 32.5173C94.4763 32.177 93.9417 31.934 93.6743 31.7882C92.3376 31.0591 91.6814 30.014 91.6814 28.6287C91.6814 27.5836 92.0703 26.7087 92.848 26.0282C93.6257 25.3234 94.6465 24.9831 95.9346 24.9831C97.5872 24.9831 99.1913 25.6879 100.066 27.0489L98.5837 28.4586C97.8789 27.4621 96.9553 26.9517 95.7887 26.9517C94.6222 26.9517 93.9174 27.6565 93.9174 28.5315C93.9174 29.212 94.2819 29.7224 95.011 30.0626L96.445 30.6945C97.2227 31.0105 97.806 31.2778 98.1948 31.4965C99.6774 32.2499 100.406 33.3436 100.406 34.7775C100.406 35.8955 99.969 36.8434 99.0941 37.5968C98.2191 38.3502 97.1012 38.7391 95.7158 38.7391ZM110.133 35.8712L111.008 37.6697C110.061 38.3988 108.918 38.7634 107.533 38.7634C104.787 38.7634 103.377 36.9892 103.377 33.8783V27.4135H101.068V25.4206H103.401V20.8029H105.686V25.4206H110.304V27.4135H105.686V34.0484C105.686 35.774 106.391 36.6246 107.8 36.6246C108.554 36.6246 109.331 36.3816 110.133 35.8712ZM113.603 23.5735C112.631 23.5735 111.902 22.8687 111.902 21.8965C111.902 20.9487 112.631 20.2682 113.603 20.2682C114.502 20.2682 115.255 20.9973 115.255 21.8965C115.255 22.8687 114.502 23.5735 113.603 23.5735ZM114.721 25.4206V38.4474H112.388V25.4206H114.721ZM122.939 35.1664L126.876 25.4206H129.452L123.716 38.4231H122.088L116.352 25.4206H118.953L122.939 35.1664ZM140.826 27.3163V25.4206H143.062V38.4474H140.826V36.6003C139.66 38.0342 138.128 38.7634 136.233 38.7634C134.361 38.7634 132.806 38.1072 131.566 36.7705C130.327 35.4337 129.719 33.8054 129.719 31.8368C129.719 29.8925 130.327 28.2884 131.566 27.0246C132.806 25.7365 134.361 25.1046 136.233 25.1046C138.08 25.1046 139.611 25.8337 140.826 27.3163ZM140.972 31.9097C140.972 30.6216 140.559 29.5036 139.732 28.6044C138.906 27.7051 137.837 27.2434 136.5 27.2434C135.163 27.2434 134.094 27.7051 133.292 28.6044C132.49 29.5036 132.077 30.6216 132.077 31.934C132.077 33.2464 132.49 34.3644 133.292 35.2636C134.094 36.1629 135.163 36.6246 136.5 36.6246C137.837 36.6246 138.906 36.1629 139.732 35.2636C140.559 34.3644 140.972 33.2464 140.972 31.9097ZM148.531 20.0494V38.4474H146.198V20.0494H148.531Z" fill="white"/>
</svg>
