<svg width="32" height="32" viewBox="0 0 32 32" fill="none" xmlns="http://www.w3.org/2000/svg">
<circle cx="16" cy="16" r="16" fill="#E96744"/>
<path d="M16 16.9756C20.7634 16.9756 24.625 20.8371 24.625 25.6006H23.375C23.375 21.5275 20.0731 18.2256 16 18.2256C11.9269 18.2256 8.625 21.5275 8.625 25.6006H7.375C7.375 20.8371 11.2366 16.9756 16 16.9756ZM15.999 6.40039C18.6499 6.40039 20.7987 8.54932 20.7988 11.2002C20.7988 13.8512 18.65 16 15.999 16C13.3484 15.9996 11.1992 13.8509 11.1992 11.2002C11.1993 8.54954 13.3484 6.40074 15.999 6.40039ZM15.999 7.65039C14.0388 7.65074 12.4493 9.23989 12.4492 11.2002C12.4492 13.1606 14.0387 14.7496 15.999 14.75C17.9596 14.75 19.5488 13.1608 19.5488 11.2002C19.5487 9.23968 17.9596 7.65039 15.999 7.65039Z" fill="#FAFAFA"/>
</svg>
