<svg width="110" height="78" viewBox="0 0 110 78" fill="none" xmlns="http://www.w3.org/2000/svg">
<path d="M118.312 2.89993C118.405 3.4395 118.371 3.99458 118.212 4.51997L98.4121 69.4673C98.0396 70.568 97.5092 71.6044 96.8451 72.5446C95.0754 75.0502 92.3451 76.8845 89.0787 77.4468C86.6992 77.8564 84.3616 77.5329 82.3011 76.6424C81.5334 76.3126 80.8025 75.8999 80.1202 75.4235C79.1045 74.7043 78.1953 73.8242 77.4388 72.8178L69.7456 62.354C68.6392 60.848 66.2862 61.2509 65.7384 63.0396L61.8613 75.7589C61.4888 76.8596 60.9563 77.8964 60.2943 78.8362C59.813 79.515 59.2598 80.1467 58.6465 80.7141C57.0003 82.2427 54.9075 83.3288 52.5279 83.7384C49.2615 84.3007 46.075 83.4847 43.5695 81.7151C42.5517 80.9963 41.6424 80.1162 40.888 79.1094L0.422857 24.0909C0.24393 23.8428 0.103793 23.5604 0.0521938 23.2607L0.0514814 23.2565C-0.275548 21.3567 0.997094 19.5497 2.90112 19.2219L16.6614 16.8533C19.0409 16.4437 21.3785 16.7672 23.4431 17.657C24.2109 17.9868 24.9397 18.3999 25.6206 18.8808C26.638 19.5975 27.5469 20.4756 28.3013 21.4824L43.2447 41.8029C44.3556 43.3102 46.7103 42.9049 47.2512 41.1132L49.2508 34.4897L37.2317 18.1486C35.7852 16.1754 36.9132 13.3673 39.3258 12.9521L53.2143 10.5614C54.3286 10.3696 55.4344 10.3389 56.5076 10.4521C58.5759 10.6708 60.5208 11.4216 62.1731 12.5868C63.1905 13.3035 64.0973 14.1819 64.8538 15.1883L79.7972 35.5088C80.904 37.0169 83.2607 36.6112 83.8037 34.8192L85.4532 29.365L91.0951 10.6735C91.7211 8.67129 92.864 6.86534 94.3946 5.44393C96.0429 3.91499 98.1378 2.82855 100.517 2.41896L114.278 0.0503553C116.18 -0.277036 117.985 1.00007 118.312 2.89993Z" fill="#FAFAFA" fill-opacity="0.1"/>
</svg>
